# xmcd CD database file
#
# Track frame offsets:
#	150
#	17333
#	33542
#	55004
#	76350
#	89949
#	105629
#	120216
#	137381
#	151954
#
# Disc length: 2219 seconds
#
# Revision: 0
# Processed by: cddbd v1.5.1PL0 Copyright (c) Steve Scherf et al.
# Submitted via: NeoAudio 9.9.9
#
DISCID=6f08a90a
DTITLE=linedance workshop jos slijpen - linedance workshop jan/feb o5
DYEAR=2005
DGENRE=Country
TTITLE0=Don't forget
TTITLE1=I ain't no Quitter
TTITLE2=Celeste
TTITLE3=Celeste (version)
TTITLE4=Trucking
TTITLE5=You've got to talk
TTITLE6=He will be mine
TTITLE7=Trust me !
TTITLE8=Just my luck
TTITLE9=Mars attack
EXTD=YEAR: 2005
EXTT0=
EXTT1=
EXTT2=
EXTT3=
EXTT4=
EXTT5=
EXTT6=
EXTT7=
EXTT8=
EXTT9=
PLAYORDER=
